<svg id="Icon_map-pin" data-name="Icon / map-pin" xmlns="http://www.w3.org/2000/svg" xmlns:xlink="http://www.w3.org/1999/xlink" width="17" height="21" viewBox="0 0 17 21">
  <defs>
    <clipPath id="clip-path">
      <path id="Combined_Shape" data-name="Combined Shape" d="M8.5,21a.83.83,0,0,1-.471-.147c-.074-.05-.193-.137-.355-.256-.268-.2-.571-.436-.9-.7a26.809,26.809,0,0,1-2.717-2.558C1.365,14.409,0,11.52,0,8.75A8.637,8.637,0,0,1,8.5,0,8.637,8.637,0,0,1,17,8.75c0,2.771-1.365,5.66-4.058,8.586a26.691,26.691,0,0,1-2.717,2.558c-.3.247-.6.484-.9.7-.191.142-.308.224-.352.254A.835.835,0,0,1,8.5,21Zm0-19.25a6.91,6.91,0,0,0-6.8,7c0,2.309,1.209,4.793,3.592,7.383a24.938,24.938,0,0,0,2.542,2.392c.222.183.446.36.666.527.221-.168.445-.346.666-.527a24.938,24.938,0,0,0,2.542-2.392C14.091,13.543,15.3,11.059,15.3,8.75A6.91,6.91,0,0,0,8.5,1.75Zm0,10.5a3.455,3.455,0,0,1-3.4-3.5,3.455,3.455,0,0,1,3.4-3.5,3.455,3.455,0,0,1,3.4,3.5A3.455,3.455,0,0,1,8.5,12.25ZM8.5,7a1.751,1.751,0,1,0,1.7,1.75A1.727,1.727,0,0,0,8.5,7Z" transform="translate(0)" fill="#222423"/>
    </clipPath>
    <filter id="_Icon_Color" x="-61.7" y="-42" width="140.4" height="141" filterUnits="userSpaceOnUse">
      <feOffset dy="18" input="SourceAlpha"/>
      <feGaussianBlur stdDeviation="20" result="blur"/>
      <feFlood flood-color="#6b67d2" flood-opacity="0.349"/>
      <feComposite operator="in" in2="blur"/>
      <feComposite in="SourceGraphic"/>
    </filter>
  </defs>
  <g id="Grupo_92" data-name="Grupo 92" transform="translate(0)">
    <path id="Combined_Shape-2" data-name="Combined Shape" d="M8.5,21a.83.83,0,0,1-.471-.147c-.074-.05-.193-.137-.355-.256-.268-.2-.571-.436-.9-.7a26.809,26.809,0,0,1-2.717-2.558C1.365,14.409,0,11.52,0,8.75A8.637,8.637,0,0,1,8.5,0,8.637,8.637,0,0,1,17,8.75c0,2.771-1.365,5.66-4.058,8.586a26.691,26.691,0,0,1-2.717,2.558c-.3.247-.6.484-.9.7-.191.142-.308.224-.352.254A.835.835,0,0,1,8.5,21Zm0-19.25a6.91,6.91,0,0,0-6.8,7c0,2.309,1.209,4.793,3.592,7.383a24.938,24.938,0,0,0,2.542,2.392c.222.183.446.36.666.527.221-.168.445-.346.666-.527a24.938,24.938,0,0,0,2.542-2.392C14.091,13.543,15.3,11.059,15.3,8.75A6.91,6.91,0,0,0,8.5,1.75Zm0,10.5a3.455,3.455,0,0,1-3.4-3.5,3.455,3.455,0,0,1,3.4-3.5,3.455,3.455,0,0,1,3.4,3.5A3.455,3.455,0,0,1,8.5,12.25ZM8.5,7a1.751,1.751,0,1,0,1.7,1.75A1.727,1.727,0,0,0,8.5,7Z" transform="translate(0)" fill="#222423"/>
    <g id="Enmascarar_grupo_92" data-name="Enmascarar grupo 92" clip-path="url(#clip-path)">
      <g transform="matrix(1, 0, 0, 1, 0, 0)" filter="url(#_Icon_Color)">
        <rect id="_Icon_Color-2" data-name="↳ Icon Color" width="20.4" height="21" transform="translate(-1.7 0)" fill="#222423"/>
      </g>
    </g>
  </g>
</svg>
